<svg width="32" height="32" viewBox="0 0 32 32" fill="none" xmlns="http://www.w3.org/2000/svg">
<circle cx="16" cy="16" r="16" fill="black"/>
<path d="M15.9435 22.247H9V24.4182H15.9435V22.247Z" fill="white"/>
<path d="M20.4806 11.8721C19.7118 11.4486 18.8328 11.2369 17.8446 11.2369C17.0126 11.2369 16.2437 11.3856 15.5379 11.6839C14.8471 11.9823 14.2749 12.4058 13.8194 12.9554V7H11.1363V17.9781H9V20.1492H15.9435V17.9781H13.8204V17.1687C13.8204 16.0074 14.1112 15.1209 14.6909 14.5091C15.2876 13.8814 16.0875 13.568 17.0917 13.568C18.0959 13.568 18.8883 13.8814 19.4689 14.5091C20.0496 15.1209 20.3404 16.0074 20.3404 17.1687V24.4181H23V16.7688C23 15.5914 22.7723 14.5873 22.3177 13.7563C21.8773 12.9234 21.2655 12.2966 20.4806 11.8721Z" fill="white"/>
</svg>
