<svg width="24" height="24" viewBox="0 0 24 24" fill="none" xmlns="http://www.w3.org/2000/svg">
  <style>
    path { fill: black; }
    @media (prefers-color-scheme: dark) {
      path { fill: white; }
    }
  </style>
  <path d="M12 0C5.3724 0 0 5.3724 0 12C0 18.6276 5.3724 24 12 24C18.6276 24 24 18.6276 24 12C24 5.3724 18.6276 0 12 0ZM11.7222 16.8138H7.296V15.4296H11.7228V16.8138H11.7222ZM16.221 16.8132H14.5254V12.1914C14.5254 11.451 14.3406 10.8858 13.9704 10.4958C13.6002 10.0956 13.095 9.8958 12.4548 9.8958C11.8146 9.8958 11.3046 10.0956 10.9242 10.4958C10.554 10.8858 10.3686 11.451 10.3686 12.1914V12.7074H11.7222V14.0916H7.296V12.7074H8.658V5.7084H10.3686V9.5052C10.659 9.1548 11.0238 8.8848 11.4642 8.6946C11.9142 8.5044 12.4044 8.4096 12.9348 8.4096C13.5648 8.4096 14.1252 8.5446 14.6154 8.8146C15.1158 9.0846 15.5058 9.4848 15.786 10.0152C16.0758 10.5456 16.221 11.1858 16.221 11.9358V16.8132Z"/>
</svg>
