<svg width="110" height="26" viewBox="0 0 110 26" fill="none" xmlns="http://www.w3.org/2000/svg">
<path d="M9.66919 21.958H0V24.9815H9.66919V21.958Z" fill="white"/>
<path d="M15.9879 7.51073C14.9167 6.92045 13.6941 6.62592 12.3164 6.62592C11.1587 6.62592 10.0875 6.8339 9.10416 7.24865C8.14241 7.6634 7.34536 8.25368 6.71181 9.01827V0.725586H2.97541V16.0114H0V19.0349H9.66919V16.0114H6.71181V14.8849C6.71181 13.268 7.11574 12.0334 7.92481 11.181C8.75552 10.307 9.86995 9.86942 11.2681 9.86942C12.6662 9.86942 13.7698 10.307 14.5789 11.181C15.388 12.0334 15.7919 13.268 15.7919 14.8849V24.9797H19.4959V14.3271C19.4959 12.6885 19.1785 11.2904 18.5449 10.1315C17.9318 8.97379 17.0795 8.0998 15.9879 7.51073Z" fill="white"/>
<path d="M37.797 9.54271C37.1634 8.712 36.3111 8.02435 35.2399 7.47735C34.1916 6.90872 32.957 6.625 31.536 6.625C29.9623 6.625 28.5209 7.01812 27.2093 7.80435C25.9206 8.56894 24.8927 9.6509 24.1281 11.049C23.3851 12.4472 23.0137 14.0533 23.0137 15.8674C23.0137 17.6815 23.3851 19.3093 24.1281 20.7507C24.8927 22.1705 25.9194 23.2849 27.2093 24.094C28.498 24.8802 29.919 25.2745 31.4699 25.2745C32.868 25.2745 34.1135 24.9908 35.2062 24.4222C36.299 23.8535 37.1622 23.1442 37.7958 22.2919V24.98H41.5646V6.92074H37.797V9.54271ZM37.0107 19.2119C36.5082 20.1292 35.8422 20.8288 35.0115 21.3097C34.1808 21.7906 33.2852 22.031 32.3234 22.031C31.3833 22.031 30.4877 21.7906 29.6353 21.3097C28.8046 20.8072 28.1278 20.0859 27.6036 19.147C27.1011 18.2069 26.8498 17.1153 26.8498 15.8698C26.8498 14.6243 27.1011 13.5532 27.6036 12.6576C28.1278 11.7403 28.8058 11.0515 29.6353 10.5922C30.466 10.1113 31.3617 9.8709 32.3234 9.8709C33.2852 9.8709 34.1808 10.1113 35.0115 10.5922C35.8422 11.0731 36.5082 11.7716 37.0107 12.69C37.5349 13.6073 37.797 14.6893 37.797 15.9347C37.797 17.179 37.5349 18.2718 37.0107 19.2119Z" fill="white"/>
<path d="M50.8332 2.42969H47.0644V6.91985H44.9341V9.9686H47.0644V19.9648C47.0644 21.7344 47.5128 23.0135 48.4084 23.7998C49.304 24.586 50.594 24.9803 52.2758 24.9803H55.2248V21.8666H52.931C52.1664 21.8666 51.6194 21.7248 51.2924 21.4411C50.9859 21.1357 50.8332 20.644 50.8332 19.966V9.9674H55.2248V6.91985H50.8332V2.42969Z" fill="white"/>
<path d="M71.6814 7.51073C70.6103 6.92045 69.3876 6.62592 68.0111 6.62592C66.8534 6.62592 65.7823 6.8339 64.7989 7.24865C63.8371 7.6634 63.0401 8.25368 62.4053 9.01827V0.725586H58.6689V24.9797H62.4053V14.8849C62.4053 13.268 62.8105 12.0334 63.6183 11.181C64.4491 10.307 65.5623 9.86942 66.9616 9.86942C68.361 9.86942 69.4634 10.307 70.2724 11.181C71.0803 12.0334 71.4855 13.268 71.4855 14.8849V24.9797H75.1894V14.3271C75.1894 12.6885 74.872 11.2904 74.2385 10.1315C73.6266 8.97379 72.7742 8.0998 71.6814 7.51073Z" fill="white"/>
<path d="M92.6395 7.77286C91.2413 7.00827 89.6785 6.62598 87.9521 6.62598C86.2258 6.62598 84.663 7.00827 83.2648 7.77286C81.8667 8.53745 80.7631 9.63024 79.9552 11.05C79.1473 12.4698 78.7422 14.0988 78.7422 15.9333C78.7422 17.7907 79.1353 19.4293 79.9227 20.8502C80.709 22.2484 81.7909 23.3412 83.1674 24.1274C84.5439 24.892 86.0839 25.2743 87.7886 25.2743C89.515 25.2743 91.0886 24.892 92.5084 24.1274C93.951 23.3412 95.0871 22.2376 95.9166 20.8166C96.7473 19.3968 97.1621 17.7678 97.1621 15.9333C97.1621 14.0976 96.7582 12.4698 95.9491 11.05C95.1412 9.63024 94.0376 8.53745 92.6395 7.77286ZM92.5409 19.2766C92.0167 20.1939 91.3279 20.8827 90.4767 21.3419C89.646 21.8012 88.7504 22.0308 87.7886 22.0308C86.2811 22.0308 85.0248 21.5066 84.0198 20.4571C83.0364 19.386 82.5447 17.8784 82.5447 15.9345C82.5447 14.6229 82.7851 13.5205 83.266 12.6237C83.7469 11.7064 84.3913 11.0176 85.2003 10.5583C86.031 10.0991 86.9267 9.86948 87.8884 9.86948C88.849 9.86948 89.7458 10.0991 90.5753 10.5583C91.406 11.0176 92.072 11.7052 92.5745 12.6237C93.0771 13.5193 93.3283 14.6229 93.3283 15.9345C93.3283 17.2461 93.065 18.3593 92.5409 19.2766Z" fill="white"/>
<path d="M106.755 7.41221C105.859 7.91472 105.138 8.62521 104.592 9.54248V6.92051H100.856V24.9798H104.592V15.4741C104.592 13.6383 104.964 12.3496 105.707 11.6066C106.471 10.8637 107.586 10.4922 109.05 10.4922H110V6.62598C108.754 6.62598 107.674 6.88805 106.755 7.41221Z" fill="white"/>
</svg>
