<svg width="24" height="24" viewBox="0 0 24 24" fill="none" xmlns="http://www.w3.org/2000/svg">
<path d="M11.7227 15.8676H7.2959V17.2518H11.7227V15.8676Z" fill="black"/>
<path d="M14.6153 9.25317C14.1251 8.98317 13.5647 8.84817 12.9347 8.84817C12.4043 8.84817 11.9141 8.94297 11.4641 9.13317C11.0237 9.32337 10.6589 9.59337 10.3685 9.94377V6.14697H8.6579V13.146H7.2959V14.5302H11.7227V13.146H10.3691V12.63C10.3691 11.8896 10.5545 11.3244 10.9241 10.9344C11.3045 10.5342 11.8145 10.3344 12.4547 10.3344C13.0949 10.3344 13.6001 10.5342 13.9703 10.9344C14.3405 11.3244 14.5259 11.8896 14.5259 12.63V17.2518H16.2215V12.375C16.2215 11.6244 16.0763 10.9842 15.7865 10.4544C15.5057 9.92337 15.1157 9.52377 14.6153 9.25317Z" fill="black"/>
<path d="M12 1.668C6.303 1.668 1.668 6.303 1.668 12C1.668 17.697 6.303 22.332 12 22.332C17.6976 22.332 22.332 17.697 22.332 12C22.332 6.303 17.6976 1.668 12 1.668ZM12 24C5.3832 24 0 18.6168 0 12C0 5.3832 5.3832 0 12 0C18.6168 0 24 5.3832 24 12C24 18.6168 18.6168 24 12 24Z" fill="black"/>
<path d="M11.7227 15.8676H7.2959V17.2518H11.7227V15.8676Z" stroke="black" stroke-width="0.25" stroke-miterlimit="10"/>
<path d="M14.6153 9.25317C14.1251 8.98317 13.5647 8.84817 12.9347 8.84817C12.4043 8.84817 11.9141 8.94297 11.4641 9.13317C11.0237 9.32337 10.6589 9.59337 10.3685 9.94377V6.14697H8.6579V13.146H7.2959V14.5302H11.7227V13.146H10.3691V12.63C10.3691 11.8896 10.5545 11.3244 10.9241 10.9344C11.3045 10.5342 11.8145 10.3344 12.4547 10.3344C13.0949 10.3344 13.6001 10.5342 13.9703 10.9344C14.3405 11.3244 14.5259 11.8896 14.5259 12.63V17.2518H16.2215V12.375C16.2215 11.6244 16.0763 10.9842 15.7865 10.4544C15.5057 9.92337 15.1157 9.52377 14.6153 9.25317Z" stroke="black" stroke-width="0.25" stroke-miterlimit="10"/>
</svg>
